<svg id="Layer_1" data-name="Layer 1" xmlns="http://www.w3.org/2000/svg" viewBox="0 0 726.3 401.94"><defs><style>.cls-1{fill:#1d1d1b;}.cls-2{fill:none;stroke:#1d1d1b;stroke-miterlimit:10;}</style></defs><path class="cls-1" d="M321.57,487.41a16.86,16.86,0,0,1-16.85-16.84V406.9a.5.5,0,0,0-.53-.53h-.52a13.94,13.94,0,0,1-12-7c-4.76-8.2-3.94-19.22,2.08-28.06,5.94-8.58,11.52-19.67,16.12-32.07,3.3-9.17,12.51-14.41,21.41-12.19a17.32,17.32,0,0,1,11,8l.38.76a14.38,14.38,0,0,1,13.47-9.09h83.63a14.36,14.36,0,0,1,0,28.71H413.62a.63.63,0,0,0-.53.53v2.24a.64.64,0,0,0,.53.53H431a20.49,20.49,0,0,1,20.46,20.46v34.93A20.49,20.49,0,0,1,431,434.59H410.87c-.47,0-.7.18-.7.53l0,.11a72.87,72.87,0,0,1-5.36,15.42.18.18,0,0,0,0,.16.3.3,0,0,0,.22.18c12.08,1.87,24.38,2.21,34.95,2.39a15.57,15.57,0,0,1,11.41,5.34,15.4,15.4,0,0,1,3.7,11.91C454,479.7,446.21,486,436.17,486c-20.22-1.4-34.05-3.87-46.29-8.29l-6.72-2.59a1.9,1.9,0,0,0-1.43.13,84.76,84.76,0,0,1-23.91,9.7,14.64,14.64,0,0,1-11.4-1.88,16.64,16.64,0,0,1-7.28-10.72,13.81,13.81,0,0,1,2-10.51,17.12,17.12,0,0,1,8.89-6.42.25.25,0,0,0,.16-.13,11,11,0,0,1,1.44-17.71c6-4,14.35-3.35,21.37,1.74a14.86,14.86,0,0,0,2,1.34.62.62,0,0,0,.51.1.27.27,0,0,0,.17-.16l.06-.13a20.63,20.63,0,0,0,2.69-5.55.31.31,0,0,0,0-.28.22.22,0,0,0-.18-.09H362.35a20.49,20.49,0,0,1-20.46-20.46V379.2a20.49,20.49,0,0,1,20.46-20.46H379.9a.63.63,0,0,0,.53-.53V356a.62.62,0,0,0-.53-.53H356.15a14.34,14.34,0,0,1-12.49-7.21c-1.53,4.91-3.25,9.71-5.11,14.29a5.59,5.59,0,0,0-.31,1.71V470.57A16.77,16.77,0,0,1,321.57,487.41Zm5.63-159.83a17.68,17.68,0,0,0-16.35,12c-4.63,12.48-10.25,23.65-16.23,32.29-5.81,8.53-6.61,19.13-2,27a12.93,12.93,0,0,0,11.09,6.46h.52a1.48,1.48,0,0,1,1.53,1.53v63.67a15.76,15.76,0,1,0,31.52,0V364.23a6.65,6.65,0,0,1,.37-2.05c1.89-4.63,3.61-9.46,5.14-14.39a.85.85,0,0,1,.63-.8.92.92,0,0,1,1,.49,13.38,13.38,0,0,0,11.77,7H379.9a1.61,1.61,0,0,1,1.53,1.53v2.24a1.61,1.61,0,0,1-1.53,1.53H362.35a19.48,19.48,0,0,0-19.46,19.46v34.93a19.48,19.48,0,0,0,19.46,19.46h15.83a1.18,1.18,0,0,1,1,.51,1.29,1.29,0,0,1,.17,1.18,22,22,0,0,1-2.78,5.75,1.23,1.23,0,0,1-.77.71,1.51,1.51,0,0,1-1.33-.18,14.84,14.84,0,0,1-2.09-1.39c-6.67-4.84-14.62-5.51-20.24-1.71a10,10,0,0,0-4.73,7.77,9.88,9.88,0,0,0,3.4,8.3,1.08,1.08,0,0,1,.33,1,1.26,1.26,0,0,1-.84.87,16,16,0,0,0-8.35,6,12.81,12.81,0,0,0-1.82,9.75,15.67,15.67,0,0,0,6.83,10.1A13.69,13.69,0,0,0,357.58,484a83.82,83.82,0,0,0,23.61-9.58,2.84,2.84,0,0,1,2.27-.23l6.77,2.6c12.14,4.38,25.89,6.84,46,8.23,9.49,0,16.85-6,17.88-14.53a14.4,14.4,0,0,0-3.47-11.13,14.56,14.56,0,0,0-10.67-5c-10.6-.18-22.94-.53-35.17-2.42a1.38,1.38,0,0,1-.91-.77,1.19,1.19,0,0,1,0-1,72.85,72.85,0,0,0,5.28-15.15,1.54,1.54,0,0,1,1.7-1.47H431a19.48,19.48,0,0,0,19.46-19.46V379.2A19.48,19.48,0,0,0,431,359.74H413.62a1.62,1.62,0,0,1-1.53-1.53V356a1.61,1.61,0,0,1,1.53-1.53h26.16a13.36,13.36,0,0,0,0-26.71H356.15a13.41,13.41,0,0,0-12.61,8.62,1,1,0,0,1-.9.69h0a.78.78,0,0,1-.7-.46l-.52-1a16.87,16.87,0,0,0-14.22-8Zm94.68,84.47H410.7a1.61,1.61,0,0,1-1.53-1.53v-5.68a1.62,1.62,0,0,1,1.53-1.54h11.18a1.62,1.62,0,0,1,1.54,1.54v5.68A1.62,1.62,0,0,1,421.88,412.05ZM410.7,404.3a.63.63,0,0,0-.53.54v5.68a.63.63,0,0,0,.53.53h11.18a.64.64,0,0,0,.54-.53v-5.68a.64.64,0,0,0-.54-.54Zm-28.39,7.75H371.47a1.62,1.62,0,0,1-1.54-1.53v-5.68a1.62,1.62,0,0,1,1.54-1.54h10.84a1.62,1.62,0,0,1,1.53,1.54v5.68A1.61,1.61,0,0,1,382.31,412.05Zm-10.84-7.75a.64.64,0,0,0-.54.54v5.68a.64.64,0,0,0,.54.53h10.84a.63.63,0,0,0,.53-.53v-5.68a.63.63,0,0,0-.53-.54ZM421.88,389H410.7a1.61,1.61,0,0,1-1.53-1.53v-5a1.61,1.61,0,0,1,1.53-1.53h11.18a1.62,1.62,0,0,1,1.54,1.53v5A1.62,1.62,0,0,1,421.88,389Zm-11.18-7.05a.62.62,0,0,0-.53.53v5a.62.62,0,0,0,.53.53h11.18a.63.63,0,0,0,.54-.53v-5a.63.63,0,0,0-.54-.53ZM382.31,389H371.47a1.62,1.62,0,0,1-1.54-1.53v-5a1.62,1.62,0,0,1,1.54-1.53h10.84a1.61,1.61,0,0,1,1.53,1.53v5A1.61,1.61,0,0,1,382.31,389Zm-10.84-7.05a.63.63,0,0,0-.54.53v5a.63.63,0,0,0,.54.53h10.84a.62.62,0,0,0,.53-.53v-5a.62.62,0,0,0-.53-.53Z" transform="translate(-57.8 -202.83)"/><path class="cls-1" d="M477.93,488.69a17.28,17.28,0,0,1-3.85-.43c-8.77-2.1-14.07-11-12.08-20.21h0c5.79-25.95,6.53-58,6.53-83v-4.48a18.77,18.77,0,0,1,18.74-18.74h35.79a18.77,18.77,0,0,1,18.74,18.74v35.62a18.76,18.76,0,0,1-18.74,18.74H501.38a.68.68,0,0,0-.71.54A326.77,326.77,0,0,1,495,475.66a16.18,16.18,0,0,1-7.23,10.17A18.34,18.34,0,0,1,477.93,488.69ZM463,468.26c-1.88,8.7,3.1,17.05,11.33,19a17.21,17.21,0,0,0,12.9-2.3,15.24,15.24,0,0,0,6.8-9.54,325.93,325.93,0,0,0,5.66-40,1.64,1.64,0,0,1,1.71-1.5h21.68a17.76,17.76,0,0,0,17.74-17.74V380.57a17.76,17.76,0,0,0-17.74-17.74H487.27a17.76,17.76,0,0,0-17.74,17.74v4.48C469.53,410.11,468.78,442.22,463,468.26ZM599.8,487.59a16.18,16.18,0,0,1-16.16-16.16V406a.62.62,0,0,0-.53-.53h-5.34a.63.63,0,0,0-.53.53c-.68,26.9-4.18,48.79-10.69,66.93a16.28,16.28,0,0,1-9.1,9.68,19.7,19.7,0,0,1-15.49-.1,16.1,16.1,0,0,1-8.7-9.09,19.07,19.07,0,0,1,.53-14.63c11.13-24.3,11-50,10.8-77.15v-1.27l-.34-28.05A21.49,21.49,0,0,1,564.5,331c3.91-.23,21.49-2.23,33.12-3.56,7.53-.85,11.16-1.26,11.47-1.26a17.43,17.43,0,0,1,17,13.29,16.46,16.46,0,0,1-2.42,12.6A15.93,15.93,0,0,1,613.14,359c-10.42,1.71-22.36,3.1-35.5,4.14-.24,0-.4.3-.4.7v9.3a.5.5,0,0,0,.53.53H611a15.84,15.84,0,0,1,5.56,30.72,1.23,1.23,0,0,0-.59.92v66.08A16.18,16.18,0,0,1,599.8,487.59Zm-22-83.08h5.34a1.61,1.61,0,0,1,1.53,1.53v65.39a15.16,15.16,0,1,0,30.32,0V405.35a2.22,2.22,0,0,1,1.08-1.79l.11-.06A14.83,14.83,0,0,0,611,374.71H577.77a1.48,1.48,0,0,1-1.53-1.53v-9.3c0-1,.58-1.7,1.36-1.7,13.07-1,25-2.42,35.37-4.12a15,15,0,0,0,9.88-6.5,15.43,15.43,0,0,0,2.27-11.83,16.41,16.41,0,0,0-16-12.51c-.35,0-5.45.59-11.35,1.26-11.65,1.32-29.25,3.33-33.18,3.55a20.5,20.5,0,0,0-19.32,20.32l.35,29.33c.17,27.29.34,53.07-10.89,77.57a18.07,18.07,0,0,0-.51,13.85,15.2,15.2,0,0,0,8.17,8.54,18.72,18.72,0,0,0,14.7.09,15.3,15.3,0,0,0,8.54-9.09c6.48-18,10-39.83,10.64-66.61A1.61,1.61,0,0,1,577.77,404.51Zm-68.13,1.17H501a1.5,1.5,0,0,1-1.53-1.53V391.93A1.48,1.48,0,0,1,501,390.4h8.61a1.61,1.61,0,0,1,1.53,1.53v12.22A1.61,1.61,0,0,1,509.64,405.68ZM501,391.4a.5.5,0,0,0-.53.53v12.22a.5.5,0,0,0,.53.53h8.61a.62.62,0,0,0,.53-.53V391.93a.62.62,0,0,0-.53-.53Zm26.5-33.21H476.77a15.47,15.47,0,1,1,0-30.94h50.76a15.47,15.47,0,1,1,0,30.94Zm-50.76-29.94a14.47,14.47,0,1,0,0,28.94h50.76a14.47,14.47,0,1,0,0-28.94Z" transform="translate(-57.8 -202.83)"/><path class="cls-1" d="M376.65,570c-1.79,0-4.34-1.24-8.14-3.42-38.36-22-77.33-44.52-115-66.27l-30.63-17.66c-38.64-22.29-78.59-45.33-117.8-68.14-4-2.36-6.49-3.78-6.36-9.58.11-5,2.1-6.41,6.21-8.79,61.65-35.68,124.35-71.91,185-106.94L369,243.53c4.58-2.65,7.23-3.82,8.94-2.86s2.06,3.77,2.18,8.36c.5,19.73.65,39,.44,57.34,0,3.38.51,5.45,1.78,6.74s3.41,1.86,6.9,1.86h.1c65.34-.19,268.78-.2,345.69-.13a13,13,0,0,1,13,13v154a14.55,14.55,0,0,1-14.51,14.53c-77.7.08-176.24.07-263.18.07H393.05c-6.28,0-9.43,0-10.9,1.44s-1.48,4.53-1.5,10.7c0,4.67,0,9.3,0,13.92,0,12.42,0,25.27-.28,37.9-.1,5.27-.49,8.31-2.24,9.3A2.82,2.82,0,0,1,376.65,570Zm-.1-328.67c-1.47,0-3.86,1.19-7.08,3.05l-79.06,45.68c-60.64,35-123.34,71.27-185,107-3.86,2.23-5.62,3.25-5.72,7.94-.12,5.21,1.88,6.37,5.87,8.69,39.2,22.81,79.16,45.86,117.79,68.14L254,499.47c37.68,21.74,76.65,44.22,115,66.26,4.4,2.53,7.22,3.85,8.58,3.07s1.65-3.79,1.74-8.45c.24-12.62.26-25.46.28-37.88q0-6.94,0-13.88c.05-12.94.3-13.18,13.4-13.18h77.22c86.94,0,185.48,0,263.18-.07A13.55,13.55,0,0,0,747,481.81v-154a12,12,0,0,0-12-12c-76.91-.07-280.34-.06-345.69.13-3.82,0-6.22-.66-7.71-2.16s-2.11-3.79-2.07-7.45c.21-18.31.06-37.59-.44-57.31-.1-4-.42-6.81-1.67-7.51A1.8,1.8,0,0,0,376.55,241.35Z" transform="translate(-57.8 -202.83)"/><path class="cls-2" d="M376.65,604.27c-10.78,0-19-4.21-25.88-8.15-38.27-22-77.12-44.4-114.69-66.08l-31.66-18.26c-38.23-22-77.75-44.85-116.58-67.44l-.57-.25c-25.75-11.45-29.2-30.81-29-41.32.27-12.2,5.53-28.88,29-39l.5-.22Q180,310.19,272.11,257l79-45.67c4.82-2.78,13.79-8,25.4-8,16.7,0,31,10.36,36.52,26.39a56,56,0,0,1,2.65,17c.27,10.53.44,20.95.51,31.16,49.63-.08,129.28-.11,194.9-.11,49.15,0,94.67,0,123.91,0a48.68,48.68,0,0,1,48.56,48.62v154a50.22,50.22,0,0,1-50.11,50.16c-57.8.06-127.44.07-194.89.07H416.22c0,9.56-.08,19.3-.27,29a59.61,59.61,0,0,1-2.33,17.08A38.74,38.74,0,0,1,376.65,604.27Z" transform="translate(-57.8 -202.83)"/><path class="cls-2" d="M368.76,564.79" transform="translate(-57.8 -202.83)"/></svg>